<mxfile host="app.diagrams.net" agent="Mozilla/5.0 (Macintosh; Intel Mac OS X 10_15_7) AppleWebKit/605.1.15 (KHTML, like Gecko) Version/18.1 Safari/605.1.15" version="26.2.12">
  <diagram name="第 1 页" id="sWGM-UPHuhNV0WwYYYgb">
    <mxGraphModel dx="1280" dy="1933" grid="1" gridSize="10" guides="1" tooltips="1" connect="1" arrows="1" fold="1" page="1" pageScale="1" pageWidth="1169" pageHeight="827" math="1" shadow="0">
      <root>
        <mxCell id="0" />
        <mxCell id="1" parent="0" />
        <mxCell id="FT-b5UL9HTG5DTIhjW9u-1" value="" style="rounded=1;whiteSpace=wrap;html=1;fillColor=#cce5ff;strokeColor=#36393d;arcSize=17;" parent="1" vertex="1">
          <mxGeometry x="322" y="-790" width="598" height="600" as="geometry" />
        </mxCell>
        <UserObject label="&lt;span style=&quot;caret-color: rgb(255, 64, 19); color: rgb(255, 64, 19); font-family: &amp;quot;Times New Roman&amp;quot;; font-size: 20px; font-weight: 700;&quot;&gt;FTA-LOS&lt;/span&gt;" tags="流程图" id="FT-b5UL9HTG5DTIhjW9u-2">
          <mxCell style="verticalAlign=middle;align=center;overflow=width;vsdxID=235;rotation=0;fillColor=#dae8fc;shape=stencil(nZBLDoAgDERP0z3SIyjew0SURgSD+Lu9kMZoXLhwN9O+tukAlrNpJg1SzDH4QW/URgNYgZTkjA4UkwJUgGXng+6DX1zLfmoymdXo17xh5zmRJ6Q42BWCfc2oJfdAr+Yv+AP9Cb7OJ3H/2JG1HNGz/84klThPVCc=);strokeColor=#6c8ebf;shadow=1;spacingTop=-1;spacingBottom=-1;spacingLeft=-1;spacingRight=-1;points=[[1,0.5,0],[0.5,0.5,0],[0.5,0,0]];labelBackgroundColor=none;rounded=0;html=1;whiteSpace=wrap;fontStyle=2" parent="1" vertex="1">
            <mxGeometry x="290" y="-171" width="670" height="30" as="geometry" />
          </mxCell>
        </UserObject>
        <UserObject label="&lt;font style=&quot;font-size: 18px;&quot; face=&quot;Times New Roman&quot;&gt;&lt;i&gt;&lt;b&gt;Transformation Function \(sg(u_e^i)\)&lt;/b&gt;&lt;/i&gt;&lt;/font&gt;" tags="流程图" id="FT-b5UL9HTG5DTIhjW9u-3">
          <mxCell style="verticalAlign=middle;align=center;overflow=width;vsdxID=280;fillColor=#92cddc;gradientColor=none;shape=stencil(nZBLDoAgDERP0z3SIyjew0SURgSD+Lu9kMZoXLhwN9O+tukAlrNpJg1SzDH4QW/URgNYgZTkjA4UkwJUgGXng+6DX1zLfmoymdXo17xh5zmRJ6Q42BWCfc2oJfdAr+Yv+AP9Cb7OJ3H/2JG1HNGz/84klThPVCc=);strokeColor=#000000;spacingTop=-1;spacingBottom=-1;spacingLeft=-1;spacingRight=-1;points=[[1,0.5,0],[0.5,0.5,0],[0.5,0,0]];labelBackgroundColor=none;rounded=0;html=1;whiteSpace=wrap;" parent="1" vertex="1">
            <mxGeometry x="561" y="-607.5" width="174" height="58.5" as="geometry" />
          </mxCell>
        </UserObject>
        <UserObject label="" tags="连接线" id="FT-b5UL9HTG5DTIhjW9u-4">
          <mxCell style="vsdxID=289;edgeStyle=none;startArrow=none;endArrow=block;startSize=5;endSize=5;strokeWidth=3;strokeColor=#0070c0;spacingTop=0;spacingBottom=0;spacingLeft=0;spacingRight=0;verticalAlign=middle;html=1;labelBackgroundColor=#FFFFFF;rounded=0;exitX=0.226;exitY=-0.031;exitDx=0;exitDy=0;exitPerimeter=0;entryX=0;entryY=0.5;entryDx=0;entryDy=0;" parent="1" target="FT-b5UL9HTG5DTIhjW9u-12" edge="1">
            <mxGeometry relative="1" as="geometry">
              <mxPoint as="offset" />
              <Array as="points" />
              <mxPoint x="311.2399999999998" y="-580.5" as="sourcePoint" />
              <mxPoint x="400" y="-580" as="targetPoint" />
            </mxGeometry>
          </mxCell>
        </UserObject>
        <mxCell id="FT-b5UL9HTG5DTIhjW9u-5" parent="1" vertex="1">
          <mxGeometry x="398.5" y="-563" as="geometry" />
        </mxCell>
        <mxCell id="FT-b5UL9HTG5DTIhjW9u-6" parent="1" vertex="1">
          <mxGeometry x="400.5" y="-580" as="geometry" />
        </mxCell>
        <mxCell id="FT-b5UL9HTG5DTIhjW9u-7" value="&lt;i style=&quot;font-weight: 400; color: rgb(255, 38, 0);&quot;&gt;&lt;b&gt;&lt;font style=&quot;font-size: 37px;&quot;&gt;FTS-FLS&lt;/font&gt;&lt;/b&gt;&lt;/i&gt;" style="text;html=1;align=center;verticalAlign=middle;whiteSpace=wrap;rounded=0;fontFamily=Times New Roman;fontStyle=3;fontSize=14;fontColor=light-dark(#ff4013, #ededed);" parent="1" vertex="1">
          <mxGeometry x="350" y="-760" width="207" height="35" as="geometry" />
        </mxCell>
        <UserObject label="&lt;div&gt;&lt;font style=&quot;font-size: 22.58px; font-family: &amp;quot;Times New Roman&amp;quot;; direction: ltr; letter-spacing: 0px; line-height: 120%; opacity: 1; color: light-dark(rgb(255, 38, 0), rgb(237, 237, 237));&quot;&gt;&lt;font style=&quot;letter-spacing: 0px; font-size: 22.58px; direction: ltr; line-height: 27.096001px; opacity: 1;&quot;&gt;&lt;i&gt;&lt;b&gt;\(i\)&lt;/b&gt;&lt;/i&gt;&lt;/font&gt;&lt;font style=&quot;font-size: 12px;&quot; face=&quot;Times New Roman&quot;&gt;&lt;span style=&quot;font-size: 22.58px; caret-color: rgb(255, 38, 0);&quot;&gt;&lt;b&gt;&lt;i&gt;th&amp;nbsp;&lt;/i&gt;&lt;/b&gt;&lt;/span&gt;&lt;/font&gt;&lt;i&gt;&lt;b&gt;Follower-USV&amp;nbsp;&lt;/b&gt;&lt;/i&gt;&lt;/font&gt;&lt;/div&gt;" tags="流程图" id="FT-b5UL9HTG5DTIhjW9u-8">
          <mxCell style="verticalAlign=middle;align=center;overflow=width;vsdxID=288;rotation=90;fillColor=#d5e8d4;shape=stencil(nZBLDoAgDERP0z3SIyjew0SURgSD+Lu9kMZoXLhwN9O+tukAlrNpJg1SzDH4QW/URgNYgZTkjA4UkwJUgGXng+6DX1zLfmoymdXo17xh5zmRJ6Q42BWCfc2oJfdAr+Yv+AP9Cb7OJ3H/2JG1HNGz/84klThPVCc=);strokeColor=#82b366;shadow=1;spacingTop=-1;spacingBottom=-1;spacingLeft=-1;spacingRight=-1;points=[[1,0.5,0],[0.5,0.5,0],[0.5,0,0]];labelBackgroundColor=none;rounded=0;html=1;whiteSpace=wrap;" parent="1" vertex="1">
            <mxGeometry x="679.5" y="-488.37" width="546" height="30" as="geometry" />
          </mxCell>
        </UserObject>
        <UserObject label="&lt;font style=&quot;font-size: 18px;&quot; face=&quot;Times New Roman&quot;&gt;&lt;i&gt;&lt;b&gt;Transformation Function \(sg(r_e^i)\)&lt;/b&gt;&lt;/i&gt;&lt;/font&gt;" tags="流程图" id="FT-b5UL9HTG5DTIhjW9u-9">
          <mxCell style="verticalAlign=middle;align=center;overflow=width;vsdxID=280;fillColor=#92cddc;gradientColor=none;shape=stencil(nZBLDoAgDERP0z3SIyjew0SURgSD+Lu9kMZoXLhwN9O+tukAlrNpJg1SzDH4QW/URgNYgZTkjA4UkwJUgGXng+6DX1zLfmoymdXo17xh5zmRJ6Q42BWCfc2oJfdAr+Yv+AP9Cb7OJ3H/2JG1HNGz/84klThPVCc=);strokeColor=#000000;spacingTop=-1;spacingBottom=-1;spacingLeft=-1;spacingRight=-1;points=[[1,0.5,0],[0.5,0.5,0],[0.5,0,0]];labelBackgroundColor=none;rounded=0;html=1;whiteSpace=wrap;" parent="1" vertex="1">
            <mxGeometry x="560" y="-339.75" width="175" height="55.5" as="geometry" />
          </mxCell>
        </UserObject>
        <UserObject label="&lt;font face=&quot;Times New Roman&quot; color=&quot;rgb(255, 64, 19)&quot;&gt;&lt;span style=&quot;caret-color: rgb(255, 64, 19); font-size: 20px;&quot;&gt;&lt;b&gt;Communication Network&lt;/b&gt;&lt;/span&gt;&lt;/font&gt;" tags="流程图" id="FT-b5UL9HTG5DTIhjW9u-11">
          <mxCell style="verticalAlign=middle;align=center;overflow=width;vsdxID=235;rotation=90;fillColor=#eeeeee;shape=stencil(nZBLDoAgDERP0z3SIyjew0SURgSD+Lu9kMZoXLhwN9O+tukAlrNpJg1SzDH4QW/URgNYgZTkjA4UkwJUgGXng+6DX1zLfmoymdXo17xh5zmRJ6Q42BWCfc2oJfdAr+Yv+AP9Cb7OJ3H/2JG1HNGz/84klThPVCc=);strokeColor=#36393d;shadow=1;spacingTop=-1;spacingBottom=-1;spacingLeft=-1;spacingRight=-1;points=[[1,0.5,0],[0.5,0.5,0],[0.5,0,0]];labelBackgroundColor=none;rounded=0;html=1;whiteSpace=wrap;fontStyle=2" parent="1" vertex="1">
            <mxGeometry x="21.63" y="-493.87" width="543.25" height="33.5" as="geometry" />
          </mxCell>
        </UserObject>
        <mxCell id="FT-b5UL9HTG5DTIhjW9u-12" value="" style="shape=sumEllipse;perimeter=ellipsePerimeter;whiteSpace=wrap;html=1;backgroundOutline=1;" parent="1" vertex="1">
          <mxGeometry x="421.5" y="-588.5" width="20" height="17" as="geometry" />
        </mxCell>
        <mxCell id="FT-b5UL9HTG5DTIhjW9u-13" value="" style="shape=sumEllipse;perimeter=ellipsePerimeter;whiteSpace=wrap;html=1;backgroundOutline=1;" parent="1" vertex="1">
          <mxGeometry x="364.5" y="-319.25" width="20" height="17" as="geometry" />
        </mxCell>
        <UserObject label="" tags="连接线" id="FT-b5UL9HTG5DTIhjW9u-15">
          <mxCell style="vsdxID=289;edgeStyle=none;startArrow=none;endArrow=block;startSize=5;endSize=5;strokeWidth=3;strokeColor=#0070c0;spacingTop=0;spacingBottom=0;spacingLeft=0;spacingRight=0;verticalAlign=middle;html=1;labelBackgroundColor=#FFFFFF;rounded=0;jumpStyle=arc;exitX=0.218;exitY=-0.085;exitDx=0;exitDy=0;exitPerimeter=0;" parent="1" source="FT-b5UL9HTG5DTIhjW9u-2" edge="1">
            <mxGeometry relative="1" as="geometry">
              <mxPoint as="offset" />
              <Array as="points" />
              <mxPoint x="440" y="-173" as="sourcePoint" />
              <mxPoint x="432" y="-570" as="targetPoint" />
            </mxGeometry>
          </mxCell>
        </UserObject>
        <UserObject label="" tags="连接线" id="FT-b5UL9HTG5DTIhjW9u-16">
          <mxCell style="vsdxID=289;edgeStyle=none;startArrow=none;endArrow=block;startSize=5;endSize=5;strokeWidth=3;strokeColor=#0070c0;spacingTop=0;spacingBottom=0;spacingLeft=0;spacingRight=0;verticalAlign=middle;html=1;labelBackgroundColor=#FFFFFF;rounded=0;entryX=0.5;entryY=1;entryDx=0;entryDy=0;" parent="1" target="FT-b5UL9HTG5DTIhjW9u-13" edge="1">
            <mxGeometry relative="1" as="geometry">
              <mxPoint as="offset" />
              <Array as="points" />
              <mxPoint x="375" y="-173" as="sourcePoint" />
              <mxPoint x="366" y="-463" as="targetPoint" />
            </mxGeometry>
          </mxCell>
        </UserObject>
        <UserObject label="" tags="连接线" id="FT-b5UL9HTG5DTIhjW9u-18">
          <mxCell style="vsdxID=289;edgeStyle=none;startArrow=none;endArrow=block;startSize=5;endSize=5;strokeWidth=3;strokeColor=#0070c0;spacingTop=0;spacingBottom=0;spacingLeft=0;spacingRight=0;verticalAlign=middle;html=1;labelBackgroundColor=#FFFFFF;rounded=0;exitX=0.825;exitY=-0.099;exitDx=0;exitDy=0;exitPerimeter=0;entryX=0;entryY=0.5;entryDx=0;entryDy=0;" parent="1" target="FT-b5UL9HTG5DTIhjW9u-13" edge="1">
            <mxGeometry relative="1" as="geometry">
              <mxPoint as="offset" />
              <Array as="points" />
              <mxPoint x="313.3215" y="-311.5637499999998" as="sourcePoint" />
              <mxPoint x="394.5" y="-324.21000000000004" as="targetPoint" />
            </mxGeometry>
          </mxCell>
        </UserObject>
        <UserObject label="&lt;b&gt;&lt;i&gt;&lt;font style=&quot;font-size: 18px;&quot; face=&quot;Times New Roman&quot;&gt;Fixed-Time&amp;nbsp;&lt;/font&gt;&lt;font style=&quot;font-size: 19px;&quot; face=&quot;Times New Roman&quot;&gt;Singularity-Avoidance&lt;/font&gt;&lt;font size=&quot;4&quot; face=&quot;Times New Roman&quot;&gt;&amp;nbsp;Fuzzy Control Law \(\bar{\tau}_u^i\)&lt;/font&gt;&lt;/i&gt;&lt;/b&gt;" tags="流程图" id="FT-b5UL9HTG5DTIhjW9u-20">
          <mxCell style="verticalAlign=middle;align=center;overflow=width;vsdxID=280;fillColor=#92cddc;gradientColor=none;shape=stencil(nZBLDoAgDERP0z3SIyjew0SURgSD+Lu9kMZoXLhwN9O+tukAlrNpJg1SzDH4QW/URgNYgZTkjA4UkwJUgGXng+6DX1zLfmoymdXo17xh5zmRJ6Q42BWCfc2oJfdAr+Yv+AP9Cb7OJ3H/2JG1HNGz/84klThPVCc=);strokeColor=#000000;spacingTop=-1;spacingBottom=-1;spacingLeft=-1;spacingRight=-1;points=[[1,0.5,0],[0.5,0.5,0],[0.5,0,0]];labelBackgroundColor=none;rounded=0;html=1;whiteSpace=wrap;" parent="1" vertex="1">
            <mxGeometry x="490" y="-515" width="250" height="56" as="geometry" />
          </mxCell>
        </UserObject>
        <UserObject label="&lt;b&gt;&lt;i&gt;&lt;font style=&quot;font-size: 18px;&quot; face=&quot;Times New Roman&quot;&gt;Fixed-Time&amp;nbsp;&lt;/font&gt;&lt;font style=&quot;font-size: 19px;&quot; face=&quot;Times New Roman&quot;&gt;Singularity-Avoidance&lt;/font&gt;&lt;font size=&quot;4&quot; face=&quot;Times New Roman&quot;&gt;&amp;nbsp;Fuzzy Control Law \(\bar{\tau}_r^i\)&lt;/font&gt;&lt;/i&gt;&lt;/b&gt;" tags="流程图" id="FT-b5UL9HTG5DTIhjW9u-22">
          <mxCell style="verticalAlign=middle;align=center;overflow=width;vsdxID=280;fillColor=#92cddc;gradientColor=none;shape=stencil(nZBLDoAgDERP0z3SIyjew0SURgSD+Lu9kMZoXLhwN9O+tukAlrNpJg1SzDH4QW/URgNYgZTkjA4UkwJUgGXng+6DX1zLfmoymdXo17xh5zmRJ6Q42BWCfc2oJfdAr+Yv+AP9Cb7OJ3H/2JG1HNGz/84klThPVCc=);strokeColor=#000000;spacingTop=-1;spacingBottom=-1;spacingLeft=-1;spacingRight=-1;points=[[1,0.5,0],[0.5,0.5,0],[0.5,0,0]];labelBackgroundColor=none;rounded=0;html=1;whiteSpace=wrap;" parent="1" vertex="1">
            <mxGeometry x="490" y="-260" width="250" height="56" as="geometry" />
          </mxCell>
        </UserObject>
        <mxCell id="FT-b5UL9HTG5DTIhjW9u-23" value="&lt;i style=&quot;caret-color: rgb(0, 0, 0); color: rgb(0, 0, 0); font-family: &amp;quot;Times New Roman&amp;quot;; font-size: 18px; font-variant-caps: normal; font-weight: 400; letter-spacing: normal; text-align: center; text-indent: 0px; text-transform: none; white-space: normal; word-spacing: 0px; -webkit-text-stroke-width: 0px; text-decoration: none;&quot;&gt;&lt;b&gt;&lt;span class=&quot;Apple-converted-space&quot;&gt;&amp;nbsp;&lt;/span&gt;\(u_F^i\)&lt;/b&gt;&lt;/i&gt;" style="text;whiteSpace=wrap;html=1;" parent="1" vertex="1">
          <mxGeometry x="383.25" y="-613.5" width="34.5" height="32" as="geometry" />
        </mxCell>
        <mxCell id="FT-b5UL9HTG5DTIhjW9u-24" value="&lt;i style=&quot;caret-color: rgb(0, 0, 0); color: rgb(0, 0, 0); font-family: &amp;quot;Times New Roman&amp;quot;; font-size: 18px; font-variant-caps: normal; font-weight: 400; letter-spacing: normal; text-align: center; text-indent: 0px; text-transform: none; white-space: normal; word-spacing: 0px; -webkit-text-stroke-width: 0px; text-decoration: none;&quot;&gt;&lt;b&gt;&lt;span class=&quot;Apple-converted-space&quot;&gt;&amp;nbsp;&lt;/span&gt;\(\alpha_u^i\)&lt;/b&gt;&lt;/i&gt;" style="text;whiteSpace=wrap;html=1;" parent="1" vertex="1">
          <mxGeometry x="400.5" y="-571.5" width="27" height="56.5" as="geometry" />
        </mxCell>
        <mxCell id="FT-b5UL9HTG5DTIhjW9u-25" value="&lt;i style=&quot;caret-color: rgb(0, 0, 0); color: rgb(0, 0, 0); font-family: &amp;quot;Times New Roman&amp;quot;; font-size: 18px; font-variant-caps: normal; font-weight: 400; letter-spacing: normal; text-align: center; text-indent: 0px; text-transform: none; white-space: normal; word-spacing: 0px; -webkit-text-stroke-width: 0px; text-decoration: none;&quot;&gt;&lt;b&gt;&lt;span class=&quot;Apple-converted-space&quot;&gt;&amp;nbsp;&lt;/span&gt;\(r_F^i\)&lt;/b&gt;&lt;/i&gt;" style="text;whiteSpace=wrap;html=1;" parent="1" vertex="1">
          <mxGeometry x="322" y="-344.75" width="38" height="40" as="geometry" />
        </mxCell>
        <mxCell id="FT-b5UL9HTG5DTIhjW9u-28" value="&lt;i style=&quot;caret-color: rgb(0, 0, 0); color: rgb(0, 0, 0); font-family: &amp;quot;Times New Roman&amp;quot;; font-size: 18px; font-variant-caps: normal; font-weight: 400; letter-spacing: normal; text-align: center; text-indent: 0px; text-transform: none; white-space: normal; word-spacing: 0px; -webkit-text-stroke-width: 0px; text-decoration: none;&quot;&gt;&lt;b&gt;&lt;span class=&quot;Apple-converted-space&quot;&gt;&amp;nbsp;&lt;/span&gt;\(\alpha_r^i\)&lt;/b&gt;&lt;/i&gt;" style="text;whiteSpace=wrap;html=1;" parent="1" vertex="1">
          <mxGeometry x="342" y="-315" width="38" height="40" as="geometry" />
        </mxCell>
        <UserObject label="" tags="连接线" id="FT-b5UL9HTG5DTIhjW9u-29">
          <mxCell style="vsdxID=289;edgeStyle=none;startArrow=none;endArrow=block;startSize=5;endSize=5;strokeWidth=3;strokeColor=#0070c0;spacingTop=0;spacingBottom=0;spacingLeft=0;spacingRight=0;verticalAlign=middle;html=1;labelBackgroundColor=#FFFFFF;rounded=0;exitX=1;exitY=0.5;exitDx=0;exitDy=0;entryX=-0.002;entryY=0.46;entryDx=0;entryDy=0;entryPerimeter=0;" parent="1" source="FT-b5UL9HTG5DTIhjW9u-12" target="FT-b5UL9HTG5DTIhjW9u-3" edge="1">
            <mxGeometry relative="1" as="geometry">
              <mxPoint as="offset" />
              <Array as="points" />
              <mxPoint x="451" y="-579" as="sourcePoint" />
              <mxPoint x="489" y="-579" as="targetPoint" />
            </mxGeometry>
          </mxCell>
        </UserObject>
        <UserObject label="" tags="连接线" id="FT-b5UL9HTG5DTIhjW9u-30">
          <mxCell style="vsdxID=289;edgeStyle=none;startArrow=none;endArrow=block;startSize=5;endSize=5;strokeWidth=3;strokeColor=#0070c0;spacingTop=0;spacingBottom=0;spacingLeft=0;spacingRight=0;verticalAlign=middle;html=1;labelBackgroundColor=#FFFFFF;rounded=0;exitX=1;exitY=0.5;exitDx=0;exitDy=0;comic=0;enumerate=0;orthogonal=0;orthogonalLoop=0;ignoreEdge=0;noJump=0;metaEdit=0;fixDash=0;deletable=1;cloneable=1;movable=1;bendable=1;backgroundOutline=0;editable=1;resizable=1;rotatable=1;locked=0;connectable=1;anchorPointDirection=1;endFill=1;jumpStyle=arc;entryX=-0.007;entryY=0.529;entryDx=0;entryDy=0;entryPerimeter=0;" parent="1" source="FT-b5UL9HTG5DTIhjW9u-13" target="FT-b5UL9HTG5DTIhjW9u-9" edge="1">
            <mxGeometry relative="1" as="geometry">
              <mxPoint as="offset" />
              <Array as="points" />
              <mxPoint x="399.5" y="-340.70000000000005" as="sourcePoint" />
              <mxPoint x="453" y="-340.5" as="targetPoint" />
            </mxGeometry>
          </mxCell>
        </UserObject>
        <UserObject label="" tags="连接线" id="FT-b5UL9HTG5DTIhjW9u-34">
          <mxCell style="vsdxID=289;edgeStyle=none;startArrow=none;endArrow=block;startSize=5;endSize=5;strokeWidth=3;strokeColor=#0070c0;spacingTop=0;spacingBottom=0;spacingLeft=0;spacingRight=0;verticalAlign=middle;html=1;labelBackgroundColor=#FFFFFF;rounded=0;exitX=0.502;exitY=1.005;exitDx=0;exitDy=0;exitPerimeter=0;entryX=0.633;entryY=0.004;entryDx=0;entryDy=0;entryPerimeter=0;" parent="1" source="FT-b5UL9HTG5DTIhjW9u-3" target="FT-b5UL9HTG5DTIhjW9u-20" edge="1">
            <mxGeometry relative="1" as="geometry">
              <mxPoint as="offset" />
              <Array as="points" />
              <mxPoint x="648.5" y="-543.0360000000001" as="sourcePoint" />
              <mxPoint x="648.5" y="-517.25" as="targetPoint" />
            </mxGeometry>
          </mxCell>
        </UserObject>
        <mxCell id="FT-b5UL9HTG5DTIhjW9u-35" value="&lt;i style=&quot;caret-color: rgb(0, 0, 0); color: rgb(0, 0, 0); font-family: &amp;quot;Times New Roman&amp;quot;; font-size: 18px; font-variant-caps: normal; font-weight: 400; letter-spacing: normal; text-align: center; text-indent: 0px; text-transform: none; white-space: normal; word-spacing: 0px; -webkit-text-stroke-width: 0px; text-decoration: none;&quot;&gt;&lt;b&gt;\(sg(u_e^i)\)&lt;/b&gt;&lt;/i&gt;" style="text;whiteSpace=wrap;html=1;" parent="1" vertex="1">
          <mxGeometry x="657.5" y="-545" width="60" height="30" as="geometry" />
        </mxCell>
        <mxCell id="FT-b5UL9HTG5DTIhjW9u-36" value="&lt;i style=&quot;caret-color: rgb(0, 0, 0); color: rgb(0, 0, 0); font-family: &amp;quot;Times New Roman&amp;quot;; font-size: 18px; font-variant-caps: normal; font-weight: 400; letter-spacing: normal; text-align: center; text-indent: 0px; text-transform: none; white-space: normal; word-spacing: 0px; -webkit-text-stroke-width: 0px; text-decoration: none;&quot;&gt;&lt;b&gt;&lt;span class=&quot;Apple-converted-space&quot;&gt;&amp;nbsp;&lt;/span&gt;\(u_e^i\)&lt;/b&gt;&lt;/i&gt;" style="text;whiteSpace=wrap;html=1;" parent="1" vertex="1">
          <mxGeometry x="450" y="-581.5" width="24.5" height="25" as="geometry" />
        </mxCell>
        <mxCell id="FT-b5UL9HTG5DTIhjW9u-37" value="&lt;i style=&quot;caret-color: rgb(0, 0, 0); color: rgb(0, 0, 0); font-family: &amp;quot;Times New Roman&amp;quot;; font-size: 18px; font-variant-caps: normal; font-weight: 400; letter-spacing: normal; text-align: center; text-indent: 0px; text-transform: none; white-space: normal; word-spacing: 0px; -webkit-text-stroke-width: 0px; text-decoration: none;&quot;&gt;&lt;b&gt;&lt;span class=&quot;Apple-converted-space&quot;&gt;&amp;nbsp;&lt;/span&gt;\(r_e^i\)&lt;/b&gt;&lt;/i&gt;" style="text;whiteSpace=wrap;html=1;" parent="1" vertex="1">
          <mxGeometry x="385" y="-342.25" width="27" height="27" as="geometry" />
        </mxCell>
        <UserObject label="" tags="连接线" id="FT-b5UL9HTG5DTIhjW9u-39">
          <mxCell style="vsdxID=289;edgeStyle=none;startArrow=none;endArrow=block;startSize=5;endSize=5;strokeWidth=3;strokeColor=#0070c0;spacingTop=0;spacingBottom=0;spacingLeft=0;spacingRight=0;verticalAlign=middle;html=1;labelBackgroundColor=#FFFFFF;rounded=0;exitX=0.5;exitY=1.021;exitDx=0;exitDy=0;exitPerimeter=0;entryX=0.625;entryY=0.021;entryDx=0;entryDy=0;entryPerimeter=0;" parent="1" target="FT-b5UL9HTG5DTIhjW9u-22" edge="1">
            <mxGeometry relative="1" as="geometry">
              <mxPoint as="offset" />
              <Array as="points" />
              <mxPoint x="646.19" y="-283.35" as="sourcePoint" />
              <mxPoint x="646.0000000000001" y="-250.75400000000002" as="targetPoint" />
            </mxGeometry>
          </mxCell>
        </UserObject>
        <mxCell id="FT-b5UL9HTG5DTIhjW9u-42" value="&lt;i style=&quot;caret-color: rgb(0, 0, 0); color: rgb(0, 0, 0); font-family: &amp;quot;Times New Roman&amp;quot;; font-size: 18px; font-variant-caps: normal; font-weight: 400; letter-spacing: normal; text-align: center; text-indent: 0px; text-transform: none; white-space: normal; word-spacing: 0px; -webkit-text-stroke-width: 0px; text-decoration: none;&quot;&gt;&lt;b&gt;\(sg(r_e^i)\)&lt;/b&gt;&lt;/i&gt;" style="text;whiteSpace=wrap;html=1;" parent="1" vertex="1">
          <mxGeometry x="660" y="-290.25" width="50" height="30" as="geometry" />
        </mxCell>
        <mxCell id="FT-b5UL9HTG5DTIhjW9u-48" value="&lt;b style=&quot;font-size: 12px; text-align: center;&quot;&gt;&lt;i&gt;&lt;font size=&quot;4&quot; face=&quot;Times New Roman&quot;&gt;\(\bar{\tau}_u^i\)&lt;/font&gt;&lt;/i&gt;&lt;/b&gt;" style="text;whiteSpace=wrap;html=1;fontSize=23;" parent="1" vertex="1">
          <mxGeometry x="802" y="-545" width="30" height="37.75" as="geometry" />
        </mxCell>
        <mxCell id="FT-b5UL9HTG5DTIhjW9u-49" value="&lt;b style=&quot;font-size: 12px; text-align: center;&quot;&gt;&lt;i&gt;&lt;font size=&quot;4&quot; face=&quot;Times New Roman&quot;&gt;\(\bar{\tau}_r^i\)&lt;/font&gt;&lt;/i&gt;&lt;/b&gt;" style="text;whiteSpace=wrap;html=1;fontSize=23;" parent="1" vertex="1">
          <mxGeometry x="780" y="-270" width="30" height="30" as="geometry" />
        </mxCell>
        <UserObject label="" tags="连接线" id="FT-b5UL9HTG5DTIhjW9u-54">
          <mxCell style="vsdxID=289;edgeStyle=none;startArrow=none;endArrow=block;startSize=5;endSize=5;strokeWidth=3;strokeColor=#0070c0;spacingTop=0;spacingBottom=0;spacingLeft=0;spacingRight=0;verticalAlign=middle;html=1;labelBackgroundColor=#FFFFFF;rounded=1;exitX=-0.015;exitY=0.066;exitDx=0;exitDy=0;exitPerimeter=0;entryX=0;entryY=0.455;entryDx=0;entryDy=0;entryPerimeter=0;curved=0;" parent="1" source="FT-b5UL9HTG5DTIhjW9u-36" target="FT-b5UL9HTG5DTIhjW9u-20" edge="1">
            <mxGeometry relative="1" as="geometry">
              <mxPoint as="offset" />
              <Array as="points">
                <mxPoint x="450" y="-490" />
              </Array>
              <mxPoint x="467" y="-220" as="sourcePoint" />
              <mxPoint x="489" y="-600" as="targetPoint" />
            </mxGeometry>
          </mxCell>
        </UserObject>
        <UserObject label="" tags="连接线" id="FT-b5UL9HTG5DTIhjW9u-56">
          <mxCell style="vsdxID=289;edgeStyle=none;startArrow=none;endArrow=block;startSize=5;endSize=5;strokeWidth=3;strokeColor=#0070c0;spacingTop=0;spacingBottom=0;spacingLeft=0;spacingRight=0;verticalAlign=middle;html=1;labelBackgroundColor=#FFFFFF;rounded=1;curved=0;" parent="1" edge="1">
            <mxGeometry relative="1" as="geometry">
              <mxPoint as="offset" />
              <Array as="points">
                <mxPoint x="450" y="-230" />
              </Array>
              <mxPoint x="450" y="-310" as="sourcePoint" />
              <mxPoint x="490" y="-230" as="targetPoint" />
            </mxGeometry>
          </mxCell>
        </UserObject>
        <UserObject label="&lt;font size=&quot;4&quot; face=&quot;Times New Roman&quot;&gt;&lt;b&gt;&lt;i&gt;Saturation Function \(sat(\bar{\tau}_u^i)\)&lt;/i&gt;&lt;/b&gt;&lt;/font&gt;" tags="流程图" id="FT-b5UL9HTG5DTIhjW9u-57">
          <mxCell style="verticalAlign=middle;align=center;overflow=width;vsdxID=280;fillColor=#92cddc;gradientColor=none;shape=stencil(nZBLDoAgDERP0z3SIyjew0SURgSD+Lu9kMZoXLhwN9O+tukAlrNpJg1SzDH4QW/URgNYgZTkjA4UkwJUgGXng+6DX1zLfmoymdXo17xh5zmRJ6Q42BWCfc2oJfdAr+Yv+AP9Cb7OJ3H/2JG1HNGz/84klThPVCc=);strokeColor=#000000;spacingTop=-1;spacingBottom=-1;spacingLeft=-1;spacingRight=-1;points=[[1,0.5,0],[0.5,0.5,0],[0.5,0,0]];labelBackgroundColor=none;rounded=0;html=1;whiteSpace=wrap;" parent="1" vertex="1">
            <mxGeometry x="772" y="-640" width="120" height="102" as="geometry" />
          </mxCell>
        </UserObject>
        <UserObject label="&lt;b&gt;&lt;i&gt;&lt;font style=&quot;font-size: 18px;&quot; face=&quot;Times New Roman&quot;&gt;Fixed-Time&amp;nbsp;&lt;/font&gt;&lt;font style=&quot;font-size: 19px;&quot; face=&quot;Times New Roman&quot;&gt;Singularity-Avoidance A&lt;/font&gt;&lt;/i&gt;&lt;/b&gt;&lt;font face=&quot;Times New Roman&quot;&gt;&lt;i&gt;&lt;b&gt;&lt;span style=&quot;font-size: 19px;&quot;&gt;uxiliary&lt;/span&gt;&lt;font size=&quot;4&quot;&gt;&amp;nbsp;system \(\hbar_u\)&lt;/font&gt;&lt;/b&gt;&lt;/i&gt;&lt;/font&gt;" tags="流程图" id="FT-b5UL9HTG5DTIhjW9u-58">
          <mxCell style="verticalAlign=middle;align=center;overflow=width;vsdxID=280;fillColor=#92cddc;gradientColor=none;shape=stencil(nZBLDoAgDERP0z3SIyjew0SURgSD+Lu9kMZoXLhwN9O+tukAlrNpJg1SzDH4QW/URgNYgZTkjA4UkwJUgGXng+6DX1zLfmoymdXo17xh5zmRJ6Q42BWCfc2oJfdAr+Yv+AP9Cb7OJ3H/2JG1HNGz/84klThPVCc=);strokeColor=#000000;spacingTop=-1;spacingBottom=-1;spacingLeft=-1;spacingRight=-1;points=[[1,0.5,0],[0.5,0.5,0],[0.5,0,0]];labelBackgroundColor=none;rounded=0;html=1;whiteSpace=wrap;fillStyle=auto;" parent="1" vertex="1">
            <mxGeometry x="489" y="-710" width="190" height="70" as="geometry" />
          </mxCell>
        </UserObject>
        <UserObject label="" tags="连接线" id="FT-b5UL9HTG5DTIhjW9u-60">
          <mxCell style="vsdxID=289;edgeStyle=none;startArrow=none;endArrow=block;startSize=5;endSize=5;strokeWidth=3;strokeColor=#0070c0;spacingTop=0;spacingBottom=0;spacingLeft=0;spacingRight=0;verticalAlign=middle;html=1;labelBackgroundColor=#FFFFFF;rounded=0;entryX=0.043;entryY=0.016;entryDx=0;entryDy=0;entryPerimeter=0;jumpStyle=arc;" parent="1" target="FT-b5UL9HTG5DTIhjW9u-20" edge="1">
            <mxGeometry relative="1" as="geometry">
              <mxPoint as="offset" />
              <Array as="points" />
              <mxPoint x="500" y="-639.73" as="sourcePoint" />
              <mxPoint x="500.0000000000001" y="-605.502" as="targetPoint" />
            </mxGeometry>
          </mxCell>
        </UserObject>
        <UserObject label="&lt;b&gt;&lt;i&gt;&lt;font style=&quot;font-size: 18px;&quot; face=&quot;Times New Roman&quot;&gt;Fixed-Time&amp;nbsp;&lt;/font&gt;&lt;font style=&quot;font-size: 19px;&quot; face=&quot;Times New Roman&quot;&gt;Singularity-Avoidance A&lt;/font&gt;&lt;/i&gt;&lt;/b&gt;&lt;font face=&quot;Times New Roman&quot;&gt;&lt;i&gt;&lt;b&gt;&lt;span style=&quot;font-size: 19px;&quot;&gt;uxiliary&lt;/span&gt;&lt;font size=&quot;4&quot;&gt;&amp;nbsp;system \(\hbar_r\)&lt;/font&gt;&lt;/b&gt;&lt;/i&gt;&lt;/font&gt;" tags="流程图" id="FT-b5UL9HTG5DTIhjW9u-61">
          <mxCell style="verticalAlign=middle;align=center;overflow=width;vsdxID=280;fillColor=#92cddc;gradientColor=none;shape=stencil(nZBLDoAgDERP0z3SIyjew0SURgSD+Lu9kMZoXLhwN9O+tukAlrNpJg1SzDH4QW/URgNYgZTkjA4UkwJUgGXng+6DX1zLfmoymdXo17xh5zmRJ6Q42BWCfc2oJfdAr+Yv+AP9Cb7OJ3H/2JG1HNGz/84klThPVCc=);strokeColor=#000000;spacingTop=-1;spacingBottom=-1;spacingLeft=-1;spacingRight=-1;points=[[1,0.5,0],[0.5,0.5,0],[0.5,0,0]];labelBackgroundColor=none;rounded=0;html=1;whiteSpace=wrap;" parent="1" vertex="1">
            <mxGeometry x="489.5" y="-429" width="190" height="70" as="geometry" />
          </mxCell>
        </UserObject>
        <mxCell id="FT-b5UL9HTG5DTIhjW9u-62" value="&lt;i style=&quot;caret-color: rgb(0, 0, 0); color: rgb(0, 0, 0); font-family: &amp;quot;Times New Roman&amp;quot;; font-size: 12px; font-variant-caps: normal; font-weight: 400; letter-spacing: normal; orphans: auto; text-align: center; text-indent: 0px; text-transform: none; white-space: normal; widows: auto; word-spacing: 0px; -webkit-text-stroke-width: 0px; text-decoration: none;&quot;&gt;&lt;b&gt;&lt;font size=&quot;4&quot;&gt;\(\hbar_u\)&lt;/font&gt;&lt;/b&gt;&lt;/i&gt;" style="text;whiteSpace=wrap;html=1;" parent="1" vertex="1">
          <mxGeometry x="502" y="-628.5" width="30" height="40" as="geometry" />
        </mxCell>
        <UserObject label="" tags="连接线" id="FT-b5UL9HTG5DTIhjW9u-63">
          <mxCell style="vsdxID=289;edgeStyle=none;startArrow=none;endArrow=block;startSize=5;endSize=5;strokeWidth=3;strokeColor=#0070c0;spacingTop=0;spacingBottom=0;spacingLeft=0;spacingRight=0;verticalAlign=middle;html=1;labelBackgroundColor=#FFFFFF;rounded=0;exitX=0.088;exitY=0.979;exitDx=0;exitDy=0;exitPerimeter=0;entryX=0.066;entryY=-0.011;entryDx=0;entryDy=0;entryPerimeter=0;jumpStyle=arc;" parent="1" source="FT-b5UL9HTG5DTIhjW9u-61" target="FT-b5UL9HTG5DTIhjW9u-22" edge="1">
            <mxGeometry relative="1" as="geometry">
              <mxPoint as="offset" />
              <Array as="points" />
              <mxPoint x="810.19" y="-529.1" as="sourcePoint" />
              <mxPoint x="810.0000000000001" y="-496.504" as="targetPoint" />
            </mxGeometry>
          </mxCell>
        </UserObject>
        <mxCell id="FT-b5UL9HTG5DTIhjW9u-64" value="&lt;i style=&quot;caret-color: rgb(0, 0, 0); color: rgb(0, 0, 0); font-family: &amp;quot;Times New Roman&amp;quot;; font-size: 12px; font-variant-caps: normal; font-weight: 400; letter-spacing: normal; orphans: auto; text-align: center; text-indent: 0px; text-transform: none; white-space: normal; widows: auto; word-spacing: 0px; -webkit-text-stroke-width: 0px; text-decoration: none;&quot;&gt;&lt;b&gt;&lt;font size=&quot;4&quot;&gt;&lt;span class=&quot;Apple-converted-space&quot;&gt;&amp;nbsp;&lt;/span&gt;\(\hbar_r\)&lt;/font&gt;&lt;/b&gt;&lt;/i&gt;" style="text;whiteSpace=wrap;html=1;" parent="1" vertex="1">
          <mxGeometry x="510" y="-359.25" width="30" height="40" as="geometry" />
        </mxCell>
        <UserObject label="" tags="连接线" id="FT-b5UL9HTG5DTIhjW9u-68">
          <mxCell style="vsdxID=289;edgeStyle=none;startArrow=none;endArrow=block;startSize=5;endSize=5;strokeWidth=3;strokeColor=#0070c0;spacingTop=0;spacingBottom=0;spacingLeft=0;spacingRight=0;verticalAlign=middle;html=1;labelBackgroundColor=#FFFFFF;rounded=1;exitX=1;exitY=0.5;exitDx=0;exitDy=0;exitPerimeter=0;entryX=0.498;entryY=1.019;entryDx=0;entryDy=0;entryPerimeter=0;curved=0;" parent="1" source="FT-b5UL9HTG5DTIhjW9u-20" target="FT-b5UL9HTG5DTIhjW9u-57" edge="1">
            <mxGeometry relative="1" as="geometry">
              <mxPoint as="offset" />
              <Array as="points">
                <mxPoint x="832" y="-487" />
              </Array>
              <mxPoint x="799" y="-500" as="sourcePoint" />
              <mxPoint x="839" y="-410" as="targetPoint" />
            </mxGeometry>
          </mxCell>
        </UserObject>
        <UserObject label="" tags="连接线" id="FT-b5UL9HTG5DTIhjW9u-69">
          <mxCell style="vsdxID=289;edgeStyle=none;startArrow=none;endArrow=block;startSize=5;endSize=5;strokeWidth=3;strokeColor=#0070c0;spacingTop=0;spacingBottom=0;spacingLeft=0;spacingRight=0;verticalAlign=middle;html=1;labelBackgroundColor=#FFFFFF;rounded=0;exitX=0.226;exitY=-0.031;exitDx=0;exitDy=0;exitPerimeter=0;" parent="1" edge="1">
            <mxGeometry relative="1" as="geometry">
              <mxPoint as="offset" />
              <Array as="points" />
              <mxPoint x="891.9999999999998" y="-588.5" as="sourcePoint" />
              <mxPoint x="940" y="-588" as="targetPoint" />
            </mxGeometry>
          </mxCell>
        </UserObject>
        <UserObject label="&lt;font size=&quot;4&quot; face=&quot;Times New Roman&quot;&gt;&lt;b&gt;&lt;i&gt;Saturation Function \(sat(\bar{\tau}_r^i)\)&lt;/i&gt;&lt;/b&gt;&lt;/font&gt;" tags="流程图" id="FT-b5UL9HTG5DTIhjW9u-70">
          <mxCell style="verticalAlign=middle;align=center;overflow=width;vsdxID=280;fillColor=#92cddc;gradientColor=none;shape=stencil(nZBLDoAgDERP0z3SIyjew0SURgSD+Lu9kMZoXLhwN9O+tukAlrNpJg1SzDH4QW/URgNYgZTkjA4UkwJUgGXng+6DX1zLfmoymdXo17xh5zmRJ6Q42BWCfc2oJfdAr+Yv+AP9Cb7OJ3H/2JG1HNGz/84klThPVCc=);strokeColor=#000000;spacingTop=-1;spacingBottom=-1;spacingLeft=-1;spacingRight=-1;points=[[1,0.5,0],[0.5,0.5,0],[0.5,0,0]];labelBackgroundColor=none;rounded=0;html=1;whiteSpace=wrap;" parent="1" vertex="1">
            <mxGeometry x="770" y="-363" width="120" height="102" as="geometry" />
          </mxCell>
        </UserObject>
        <UserObject label="" tags="连接线" id="FT-b5UL9HTG5DTIhjW9u-71">
          <mxCell style="vsdxID=289;edgeStyle=none;startArrow=none;endArrow=block;startSize=5;endSize=5;strokeWidth=3;strokeColor=#0070c0;spacingTop=0;spacingBottom=0;spacingLeft=0;spacingRight=0;verticalAlign=middle;html=1;labelBackgroundColor=#FFFFFF;rounded=1;exitX=1;exitY=0.5;exitDx=0;exitDy=0;exitPerimeter=0;entryX=0.495;entryY=0.991;entryDx=0;entryDy=0;entryPerimeter=0;curved=0;" parent="1" target="FT-b5UL9HTG5DTIhjW9u-70" edge="1">
            <mxGeometry relative="1" as="geometry">
              <mxPoint as="offset" />
              <Array as="points">
                <mxPoint x="829" y="-226" />
              </Array>
              <mxPoint x="740" y="-226" as="sourcePoint" />
              <mxPoint x="860" y="-260" as="targetPoint" />
            </mxGeometry>
          </mxCell>
        </UserObject>
        <UserObject label="" tags="连接线" id="FT-b5UL9HTG5DTIhjW9u-72">
          <mxCell style="vsdxID=289;edgeStyle=none;startArrow=none;endArrow=block;startSize=5;endSize=5;strokeWidth=3;strokeColor=#0070c0;spacingTop=0;spacingBottom=0;spacingLeft=0;spacingRight=0;verticalAlign=middle;html=1;labelBackgroundColor=#FFFFFF;rounded=0;exitX=1.005;exitY=0.517;exitDx=0;exitDy=0;exitPerimeter=0;" parent="1" source="FT-b5UL9HTG5DTIhjW9u-70" edge="1">
            <mxGeometry relative="1" as="geometry">
              <mxPoint as="offset" />
              <Array as="points" />
              <mxPoint x="901.9999999999998" y="-578.5" as="sourcePoint" />
              <mxPoint x="940" y="-310" as="targetPoint" />
            </mxGeometry>
          </mxCell>
        </UserObject>
        <mxCell id="FT-b5UL9HTG5DTIhjW9u-73" value="&lt;b style=&quot;caret-color: rgb(0, 0, 0); color: rgb(0, 0, 0); font-family: &amp;quot;Times New Roman&amp;quot;; font-style: normal; font-variant-caps: normal; letter-spacing: normal; text-align: center; text-indent: 0px; text-transform: none; white-space: normal; word-spacing: 0px; -webkit-text-stroke-width: 0px; text-decoration: none;&quot;&gt;&lt;i&gt;&lt;span class=&quot;Apple-converted-space&quot;&gt;&amp;nbsp;&lt;/span&gt;\(\tau_u^i\)&lt;/i&gt;&lt;/b&gt;" style="text;whiteSpace=wrap;html=1;" parent="1" vertex="1">
          <mxGeometry x="900" y="-623.5" width="20" height="30" as="geometry" />
        </mxCell>
        <mxCell id="FT-b5UL9HTG5DTIhjW9u-74" value="&lt;b style=&quot;caret-color: rgb(0, 0, 0); color: rgb(0, 0, 0); font-family: &amp;quot;Times New Roman&amp;quot;; font-style: normal; font-variant-caps: normal; letter-spacing: normal; text-align: center; text-indent: 0px; text-transform: none; white-space: normal; word-spacing: 0px; -webkit-text-stroke-width: 0px; text-decoration: none;&quot;&gt;&lt;i&gt;&lt;span class=&quot;Apple-converted-space&quot;&gt;&amp;nbsp;&lt;/span&gt;\(\tau_r^i\)&lt;/i&gt;&lt;/b&gt;" style="text;whiteSpace=wrap;html=1;" parent="1" vertex="1">
          <mxGeometry x="900" y="-341.75" width="20" height="30" as="geometry" />
        </mxCell>
      </root>
    </mxGraphModel>
  </diagram>
</mxfile>
